# xmcd
#
# Track frame offsets:
#	150
#	11551
#	22937
#	35284
#	47926
#	56779
#	67947
#	82404
#	95949
#	106691
#	120855
#	132642
#	145265
#	155903
#	166383
#	178208
#	188772
#
# Disc length: 2691 seconds
#
# Revision: 0
# Processed by: cddbd v1.5.2PL0 Copyright (c) Steve Scherf et al.
# Submitted via: FairStars CD Ripper 1.50
#
DISCID=f00a8111
DTITLE=Tommy Doss - After The Pioneers Tommy Doss Sings A Million Memories
DYEAR=1972
DGENRE=Country
TTITLE0=Cherokee Maiden
TTITLE1=The Call
TTITLE2=Let's Pretend
TTITLE3=I Care No More
TTITLE4=So Long To The Red River Valley
TTITLE5=If You Would Only Be Mine
TTITLE6=Trouble In Mind
TTITLE7=Sing A Sad Song
TTITLE8=I Wear Your Memory
TTITLE9=I Invented The Word
TTITLE10=A Million Memories
TTITLE11=Every Fool Has A Rainbow
TTITLE12=Cottage In The Clouds
TTITLE13=King Of The Fools
TTITLE14=The Memory
TTITLE15=So Much To Remember
TTITLE16=Rosa
EXTD=
EXTT0=
EXTT1=
EXTT2=
EXTT3=
EXTT4=
EXTT5=
EXTT6=
EXTT7=
EXTT8=
EXTT9=
EXTT10=
EXTT11=
EXTT12=
EXTT13=
EXTT14=
EXTT15=
EXTT16=
PLAYORDER=
